<svg width="30" height="30" viewBox="0 0 895 895" fill="none" xmlns="http://www.w3.org/2000/svg">
<path d="M555.544 73.6C659.48 84.032 742.872 146.56 760.664 253.824H700.504L797.592 398.272L894.744 253.824H827.736C809.944 109.376 700.568 15.488 562.392 2.11199C543.256 0.575992 525.528 16.96 525.528 37.824C526.808 55.744 539.096 72.064 555.544 73.6ZM405.144 0.575989H67.416C48.28 0.575989 33.24 16.96 33.24 37.824V359.552C33.24 380.416 48.28 396.8 67.416 396.8H405.144C424.28 396.8 439.32 380.416 439.32 359.552V37.824C439.32 16.96 424.28 0.575989 405.144 0.575989ZM372.312 325.312H100.248V72.064H372.376V325.312H372.312ZM339.48 819.84C223.256 809.408 134.36 731.968 130.264 603.84H194.52L97.496 459.392L0.40799 603.84H64.664C67.352 769.216 183.576 876.416 332.696 891.328C351.832 892.8 369.624 876.416 369.624 855.552C369.742 846.967 366.758 838.628 361.22 832.067C355.682 825.507 347.963 821.165 339.48 819.84ZM829.08 496.576H491.288C472.088 496.576 457.112 513.024 457.112 533.824V857.088C457.112 877.888 472.088 894.272 491.288 894.272H829.016C848.152 894.272 863.128 877.888 863.128 857.088V533.824C863.192 513.024 846.808 496.576 829.08 496.576ZM796.184 821.312H524.12V569.536H796.184V821.312Z" fill="#FF4500"/>
</svg>
