<svg width="96" height="72" viewBox="0 0 96 72" fill="none" xmlns="http://www.w3.org/2000/svg">
<path d="M84 0H32L0 36L32 72H84C90.627 72 96 66.627 96 60V12C96 5.373 90.627 0 84 0ZM88 60C88 62.206 86.206 64 84 64H35.593L10.704 36L35.593 8H84C86.206 8 88 9.794 88 12V60ZM74.828 45.172C76.39 46.734 76.39 49.267 74.828 50.828C74.047 51.609 73.023 52 72 52C70.977 52 69.953 51.609 69.172 50.828L60 41.657L50.828 50.828C50.047 51.609 49.023 52 48 52C46.977 52 45.953 51.609 45.172 50.828C43.61 49.266 43.61 46.733 45.172 45.172L54.343 36L45.172 26.828C43.61 25.266 43.61 22.733 45.172 21.172C46.734 19.61 49.267 19.61 50.828 21.172L60 30.343L69.172 21.172C70.734 19.61 73.267 19.61 74.828 21.172C76.39 22.734 76.39 25.267 74.828 26.828L65.657 36L74.828 45.172Z" fill="#FF4500"/>
</svg>
