<svg width="408" height="408" viewBox="0 0 408 408" fill="none" xmlns="http://www.w3.org/2000/svg">
<rect width="408" height="408" fill="black"/>
<path d="M204 102C232.05 102 255 79.05 255 51C255 22.95 232.05 0 204 0C175.95 0 153 22.95 153 51C153 79.05 175.95 102 204 102ZM204 153C175.95 153 153 175.95 153 204C153 232.05 175.95 255 204 255C232.05 255 255 232.05 255 204C255 175.95 232.05 153 204 153ZM204 306C175.95 306 153 328.95 153 357C153 385.05 175.95 408 204 408C232.05 408 255 385.05 255 357C255 328.95 232.05 306 204 306Z" fill="#C8C8C8"/>
</svg>
