<svg width="20" height="20" viewBox="0 0 476 506" fill="none" xmlns="http://www.w3.org/2000/svg">
<path d="M226.041 205.397L230.296 87.6224C230.617 78.7514 227.4 70.1165 221.354 63.6171C215.308 57.1178 206.928 53.2864 198.057 52.9658C189.186 52.6452 180.551 55.8618 174.052 61.9078C170.834 64.9015 168.237 68.4998 166.409 72.4971C164.582 76.4944 163.559 80.8126 163.401 85.205L162.283 122.666L58.0729 10.6421C52.0515 4.1692 43.7054 0.353418 34.8706 0.0341662C26.0359 -0.285087 17.4361 2.91833 10.9632 8.93973C4.49035 14.9611 0.674572 23.3072 0.355324 32.142C0.0360748 40.9768 3.23951 49.5765 9.2609 56.0494L113.471 168.073L76.0271 166.484C71.6302 166.307 67.2419 167.003 63.1151 168.53C58.9884 170.058 55.205 172.387 51.9831 175.385C48.7612 178.382 46.1646 181.987 44.3432 185.993C42.5217 189.999 41.5114 194.325 41.3705 198.723C41.1936 203.12 41.8889 207.509 43.4165 211.635C44.9441 215.762 47.2737 219.545 50.2708 222.767C53.268 225.989 56.8734 228.586 60.8791 230.407C64.8849 232.229 69.2116 233.239 73.6097 233.38L191.384 237.636C195.772 237.699 200.129 236.894 204.206 235.269C208.328 233.842 212.108 231.571 215.302 228.6C218.496 225.628 221.034 222.023 222.754 218.014C224.67 214.066 225.786 209.778 226.041 205.397ZM466.739 449.951L362.529 337.927L399.973 339.516C404.365 339.675 408.746 338.967 412.865 337.432C416.984 335.898 420.76 333.568 423.978 330.574C427.196 327.58 429.793 323.982 431.621 319.985C433.448 315.987 434.471 311.669 434.629 307.277C434.788 302.884 434.08 298.503 432.546 294.385C431.012 290.266 428.681 286.49 425.687 283.271C422.694 280.053 419.096 277.456 415.098 275.629C411.101 273.801 406.783 272.779 402.39 272.62L284.616 268.364C280.219 268.187 275.831 268.883 271.704 270.41C267.577 271.938 263.794 274.267 260.572 277.265C257.35 280.262 254.754 283.867 252.932 287.873C251.111 291.879 250.1 296.205 249.959 300.603L245.704 418.378C245.527 422.774 246.222 427.163 247.75 431.29C249.277 435.416 251.607 439.2 254.604 442.422C257.601 445.644 261.206 448.24 265.212 450.062C269.218 451.883 273.545 452.893 277.943 453.034C282.34 453.211 286.728 452.516 290.855 450.988C294.981 449.461 298.765 447.131 301.987 444.134C305.209 441.137 307.805 437.531 309.627 433.526C311.448 429.52 312.458 425.193 312.599 420.795L313.717 383.334L417.927 495.358C423.948 501.831 432.295 505.647 441.129 505.966C449.964 506.285 458.564 503.082 465.037 497.06C471.51 491.039 475.325 482.693 475.645 473.858C475.964 465.023 472.76 456.424 466.739 449.951Z" fill="#BABABA"/>
</svg>
